<?xml version="1.0" encoding="UTF-8"?>
<svg id="Layer_2" xmlns="http://www.w3.org/2000/svg" viewBox="0 0 362.8 512">
  <defs>
    <style>
      .cls-1 {
        fill: #fff;
      }
    </style>
  </defs>
  <g id="Layer_1-2" data-name="Layer_1">
    <path d="M33.8,0h23v22.8h21.2V0h23v69h-23v-23h-21v23h-23.2M131.4,23h-20.3V0h63.7v23h-20.4v46h-23M184.9,0h24.1l14.8,24.3L238.6,0h24.1v69h-23v-34.2l-16.1,24.8-16.1-24.8v34.2h-22.6M274.1,0h23v46.2h32.6v22.8h-55.6"/>
    <path d="M33,471L0,100.6h362.8l-33,370.2-148.7,41.2"/>
    <path d="M181.4,480.5V131h148.3l-28.3,316"/>
    <path class="cls-1" d="M67.4,176.3h114v45.4h-64.2l4.2,46.5h60v45.3h-101.6M81.8,336.3h45.6l3.2,36.3,50.8,13.6v47.4l-93.2-26"/>
    <path class="cls-1" d="M295,176.3h-113.8v45.4h109.6M286.7,268.2h-105.5v45.4h56l-5.3,59-50.7,13.6v47.2l93-25.8"/>
  </g>
</svg>