<?xml version="1.0" encoding="UTF-8"?>
<svg id="Layer_2" xmlns="http://www.w3.org/2000/svg" viewBox="0 0 685.71 359.7">
  <g id="Layer_1-2" data-name="Layer_1" focusable="false">
    <path d="M267.73,355.34c-48.82-5.6-125.04-26.78-159.99-44.49C26.5,269.68-15.39,203.34,5.2,148.46,21.55,104.85,73.97,60.43,138.99,35.08c191.86-74.81,473.09-24.03,533.03,96.24,18.79,37.71,18.3,64.27-1.83,99.37-27.25,47.51-80.26,82.16-161.89,105.82-76.55,22.18-156.56,28.45-240.57,18.83h0ZM148.22,258.08l4.49-22.79,34.71-3.03c19.09-1.66,39.54-5.66,45.44-8.9,44.25-24.1,57.75-91.51,22.81-113.87-7.56-4.86-31.36-8.56-63.63-9.94l-51.55-2.23-16.84,88.3c-9.26,48.56-16.84,89.86-16.84,91.78s8.31,3.49,18.46,3.49c17.43,0,18.71-1.26,22.95-22.79h0ZM160.68,199.77c.13-4.06,3.3-21.89,7.05-39.59l6.81-32.18,23.37,1.09c12.85.63,26.88,4.63,31.18,8.92,10.17,10.18,4.69,41.37-9.53,54.24-13.54,12.26-59.22,18.07-58.88,7.5v.02ZM456.84,256.1l4.34-22.09,36.82-2.63c45.32-3.26,65.57-16.05,78.37-49.57,11.87-31.07,7.12-58.55-12.31-71.28-11.04-7.23-25.82-9.34-65.46-9.34h-51.19l-14.29,72.41c-7.86,39.83-15.84,80.41-17.74,90.19l-3.45,17.78,20.28-1.66c19.08-1.6,20.54-2.97,24.62-23.77v-.03ZM469.61,201.6c-2.99-4.86,9.85-69.88,14.76-74.79,1.81-1.83,14.75-1.09,28.77,1.6,22.64,4.34,25.67,6.63,27.23,20.25,2.69,23.51-8.64,44.9-27.2,51.37-19.26,6.71-39.9,7.44-43.55,1.54v.02ZM311.59,211.14c2.18-10.33,6.66-32.66,9.94-49.62l5.97-30.85h26.44c25.3,0,26.43.63,26.31,14.75-.11,13.01-3.15,29.94-13.51,75.43-2.61,11.47-1.31,12.28,17.48,10.73l20.3-1.66,9.85-49.85c8.87-44.89,9.04-51.08,1.7-62.28-8.56-13.06-28.78-19.29-62.62-19.29h-20.22l4.47-19.82c5.53-24.53,3.25-28.46-16.54-28.46-17.95,0-14.88-8.41-36.65,100.44-8.39,41.97-13.88,77.69-12.19,79.37,1.69,1.71,10.32,2.34,19.19,1.49,13.62-1.37,16.73-4.51,20.08-20.37v-.03Z"/>
  </g>
</svg>