<?xml version="1.0" encoding="UTF-8"?>
<svg id="Layer_2" xmlns="http://www.w3.org/2000/svg" viewBox="0 0 666.67 397.6">
  <defs>
    <style>
      .cls-1 {
        fill-rule: evenodd;
      }
    </style>
  </defs>
  <g id="Layer_1-2" data-name="Layer_1">
    <path class="cls-1" d="M333.33,0c-88.9,0-144.43,44.17-166.67,132.53,33.33-44.17,72.23-60.73,116.67-49.7,25.37,6.3,43.5,24.6,63.53,44.83,32.7,32.97,70.53,71.13,153.13,71.13,88.9,0,144.43-44.17,166.67-132.53-33.33,44.17-72.2,60.73-116.67,49.7-25.37-6.3-43.5-24.6-63.57-44.83C453.77,38.13,415.97,0,333.33,0h0ZM166.67,198.8c-88.9,0-144.43,44.17-166.67,132.53,33.33-44.2,72.23-60.73,116.67-49.7,25.37,6.3,43.5,24.6,63.57,44.83,32.67,32.97,70.5,71.13,153.13,71.13,88.9,0,144.43-44.17,166.67-132.53-33.33,44.17-72.23,60.73-116.67,49.7-25.37-6.3-43.5-24.6-63.53-44.83-32.73-32.97-70.57-71.13-153.17-71.13Z"/>
  </g>
</svg>