<svg width="966" height="308" viewBox="0 0 966 308" fill="none" xmlns="http://www.w3.org/2000/svg">
<path d="M2.592 12.302H73.834L100.898 39.963V65.236C100.898 66.032 95.1933 71.8693 83.784 82.748C95.1933 92.8307 100.898 98.5353 100.898 99.862V124.936L73.834 152H2.592L1.398 150.806V126.926L2.592 125.732H10.751V39.167H2.592L1.398 37.973V13.496L2.592 12.302ZM39.805 39.167V68.221H58.113L72.441 53.893V51.306L61.894 39.167H39.805ZM39.805 96.678V125.732H61.894L72.441 112.996V111.006L58.113 96.678H39.805ZM164.578 11.705H218.308L219.701 12.899V37.575L218.308 38.769H205.97V131.702L185.274 152H146.071L125.773 131.702V93.295L126.967 91.902H153.036L154.23 93.295V119.762L158.011 123.543H173.732L177.513 119.762V38.769H164.578L163.384 37.575V12.899L164.578 11.705ZM272.613 12.302H312.214L342.462 43.147V121.752L312.214 152H272.613L242.365 121.752V43.147L272.613 12.302ZM270.623 54.49V110.409L284.553 123.742H300.274L314.005 110.409V54.49L300.274 41.157H284.553L270.623 54.49ZM365.977 12.501H437.02L464.681 40.162V71.007L437.617 97.872C455.262 132.763 464.084 150.806 464.084 152H433.836C433.04 152 424.085 134.223 406.971 98.668H393.041V150.806L391.847 152H365.977L364.783 150.806V13.695L365.977 12.501ZM393.041 39.366V72.201H425.677L436.423 59.664V51.505L425.677 39.366H393.041ZM489.987 12.103H508.295L560.035 88.32V13.297L561.229 12.103H587.696L589.089 13.297V150.806L587.696 152H568.791L517.25 76.38V150.806L515.857 152H489.987L488.793 150.806V13.297L489.987 12.103Z" fill="#e7e7e7"/>
<path d="M1.398 168.7H27.268L28.462 169.894V220.838C29.1253 224.287 36.422 240.207 50.352 268.598C62.292 242.065 69.1907 226.145 71.048 220.838V169.894L72.441 168.7H98.709L99.903 169.894V227.007C88.2283 252.346 74.63 279.344 59.108 308H40.402C39.3407 308 25.9413 281.201 0.204 227.604V169.894L1.398 168.7ZM123.057 167.705H211.214L212.408 168.899V193.575L211.214 194.769H150.32V224.022H201.065L202.259 225.216V249.096L201.065 250.489H150.32V281.533H211.214L212.408 282.727V306.806L211.214 308H123.057L121.863 306.806V168.899L123.057 167.705ZM237.91 168.501H308.953L336.614 196.162V227.007L309.55 253.872C327.194 288.763 336.017 306.806 336.017 308H305.769C304.973 308 296.018 290.223 278.904 254.668H264.974V306.806L263.78 308H237.91L236.715 306.806V169.695L237.91 168.501ZM264.974 195.366V228.201H297.61L308.356 215.664V207.505L297.61 195.366H264.974ZM361.919 168.302H433.161L460.225 195.963V221.236C460.225 222.032 454.52 227.869 443.111 238.748C454.52 248.831 460.225 254.535 460.225 255.862V280.936L433.161 308H361.919L360.725 306.806V282.926L361.919 281.732H370.078V195.167H361.919L360.725 193.973V169.496L361.919 168.302ZM399.132 195.167V224.221H417.44L431.768 209.893V207.306L421.221 195.167H399.132ZM399.132 252.678V281.732H421.221L431.768 268.996V267.006L417.44 252.678H399.132ZM525.895 168.302H544.004C545.463 168.302 559.128 195.366 584.998 249.494V306.806L583.605 308H557.934L556.541 306.806V279.742H513.159V306.806L511.965 308H486.095L484.901 306.806V249.494C510.771 195.366 524.436 168.302 525.895 168.302ZM534.651 206.311L513.756 253.275H556.143V252.678L535.248 206.311H534.651ZM611.252 167.705H637.321L638.515 168.899V224.022H644.883C664.385 189.263 675.33 170.491 677.718 167.705H709.956C709.823 169.562 695.429 192.912 666.773 237.753C695.562 283.39 709.956 306.806 709.956 308H677.718C674.003 302.959 663.058 284.452 644.883 252.479H638.515V306.806L637.321 308H611.252L610.058 306.806V168.899L611.252 167.705ZM735.41 167.705H823.567L824.761 168.899V193.575L823.567 194.769H762.673V224.022H813.418L814.612 225.216V249.096L813.418 250.489H762.673V281.533H823.567L824.761 282.727V306.806L823.567 308H735.41L734.215 306.806V168.899L735.41 167.705ZM850.859 168.103H877.326L878.719 169.297V281.533H940.608L942.001 282.926V306.806L940.608 308H850.859L849.665 306.806V169.297L850.859 168.103Z" fill="#e7e7e7"/>
<rect x="614" y="128" width="329" height="24" fill="#e7e7e7"/>
</svg>
