<svg width="244" height="51" viewBox="0 0 244 51" fill="none" xmlns="http://www.w3.org/2000/svg">
<path d="M1.05469 8.94531H20.4141V12.5195H5.4375V15.6484H18.3516V19.1523H5.4375V25H1.05469V8.94531ZM22.5234 8.94531H26.9062V19.5508C26.9062 20.0664 27.1055 20.5117 27.5039 20.8867C27.9023 21.2383 28.3906 21.418 28.9688 21.4258H37.9102C38.4961 21.4023 38.9844 21.2188 39.375 20.875C39.7734 20.5 39.9727 20.0586 39.9727 19.5508V8.94531H44.3555V20.3125C44.3633 21.6094 43.8633 22.7148 42.8555 23.6289C41.8555 24.543 40.6367 25 39.1992 25H27.6797C26.25 25 25.0312 24.543 24.0234 23.6289C23.0234 22.7148 22.5234 21.6094 22.5234 20.3125V8.94531ZM46.4766 25V8.94531H50.8594V21.4258H65.4727V25H46.4766ZM67.5938 25V8.94531H71.9766V21.4258H86.5898V25H67.5938ZM94.043 8.94531H104.285C105.762 8.94531 107.012 9.41797 108.035 10.3633C109.066 11.3086 109.582 12.4531 109.582 13.7969V13.8672H105.316C105.34 13.8203 105.344 13.7969 105.328 13.7969C105.328 13.4453 105.195 13.1523 104.93 12.918C104.68 12.6602 104.355 12.543 103.957 12.5664H94.8281C94.4531 12.543 94.1328 12.6641 93.8672 12.9297C93.6094 13.1641 93.4805 13.4531 93.4805 13.7969C93.4883 14.1406 93.6211 14.4336 93.8789 14.6758C94.1367 14.918 94.4531 15.0391 94.8281 15.0391C95.9062 15.0391 97.5703 15.0352 99.8203 15.0273C102.07 15.0039 103.73 15.0039 104.801 15.0273C106.324 15.0195 107.613 15.5078 108.668 16.4922C109.754 17.4609 110.285 18.6367 110.262 20.0195C110.27 21.4023 109.734 22.5781 108.656 23.5469C107.609 24.5156 106.324 25 104.801 25H94.1719C92.6719 25 91.3828 24.5156 90.3047 23.5469C89.2422 22.5781 88.7109 21.4023 88.7109 20.0195H92.8125V20.043C92.8125 20.4336 92.9648 20.7695 93.2695 21.0508C93.5742 21.332 93.9375 21.4727 94.3594 21.4727H104.391C104.828 21.4492 105.195 21.3125 105.492 21.0625C105.789 20.7812 105.938 20.4492 105.938 20.0664C105.938 19.668 105.785 19.332 105.48 19.0586C105.176 18.7773 104.812 18.6367 104.391 18.6367H94.043C92.5742 18.6289 91.3242 18.1562 90.293 17.2188C89.2617 16.2656 88.7461 15.125 88.7461 13.7969C88.7461 12.4531 89.2617 11.3242 90.293 10.4102C91.3164 9.48047 92.5664 8.99219 94.043 8.94531ZM112.406 8.94531H133.418V12.5195H125.098V25H120.715V12.5195H112.406V8.94531ZM141.516 8.94531H145.875L156.07 25H151.348L149.133 21.4844H138.27L136.031 25H131.32L141.516 8.94531ZM143.707 12.9297L140.426 18.0859H146.965L143.707 12.9297ZM162.633 8.94531H174.832C176.27 8.94531 177.488 9.40234 178.488 10.3164C179.496 11.2305 179.996 12.3359 179.988 13.6328V14.6641H175.605V14.3945C175.605 13.8555 175.406 13.4102 175.008 13.0586C174.617 12.6758 174.129 12.4961 173.543 12.5195H163.922C163.359 12.5117 162.871 12.6953 162.457 13.0703C162.059 13.4141 161.859 13.8555 161.859 14.3945V19.5508C161.859 20.0664 162.062 20.5117 162.469 20.8867C162.875 21.2383 163.359 21.418 163.922 21.4258H173.543C174.129 21.4023 174.617 21.2188 175.008 20.875C175.406 20.5 175.605 20.0586 175.605 19.5508V19.3047H179.988V20.3125C179.996 21.6094 179.496 22.7148 178.488 23.6289C177.488 24.543 176.27 25 174.832 25H162.633C161.203 25 159.984 24.543 158.977 23.6289C157.977 22.7148 157.477 21.6094 157.477 20.3125V13.6328C157.477 12.3359 157.98 11.2305 158.988 10.3164C159.996 9.40234 161.211 8.94531 162.633 8.94531ZM182.109 8.94531H186.492V15.8359L197.191 8.94531H204.398L192.129 16.4805L205.289 25H198.082L186.492 17.1484V25H182.109V8.94531Z" fill="#D7D7D7"/>
<path d="M80.4688 33.9453H85.2148L89.9609 44.6914L94.6953 34.0625H99.0781L103.801 44.6914L108.547 33.9453H113.293L106.168 50H101.797L96.8867 39.3828L91.9766 50H87.6055L80.4688 33.9453ZM114.828 33.9453H134.656V37.5195H119.211V40.1445H132.594V43.6602H119.211V46.4258H134.656V50H114.828V33.9453ZM136.766 33.9453H152.633C153.977 33.9453 155.121 34.375 156.066 35.2344C157.027 36.0938 157.496 37.1289 157.473 38.3398C157.473 38.9648 157.332 39.5586 157.051 40.1211C156.77 40.6758 156.383 41.1562 155.891 41.5625C156.672 41.9531 157.297 42.5 157.766 43.2031C158.234 43.9062 158.469 44.6758 158.469 45.5117C158.469 46.7539 157.988 47.8164 157.027 48.6992C156.082 49.5664 154.918 50 153.535 50H136.766V33.9453ZM141.148 37.3555V40.4844H151.215C151.691 40.4844 152.094 40.332 152.422 40.0273C152.75 39.7227 152.914 39.3555 152.914 38.9258C152.914 38.4805 152.75 38.1094 152.422 37.8125C152.094 37.5078 151.691 37.3555 151.215 37.3555H141.148ZM141.148 43.4727V46.6016H152.316C152.793 46.6016 153.195 46.4492 153.523 46.1445C153.875 45.8398 154.039 45.4688 154.016 45.0312C154.016 44.5938 153.848 44.2227 153.512 43.918C153.184 43.6133 152.785 43.4648 152.316 43.4727H141.148ZM172.297 33.9453H189.336C190.289 33.9453 191.188 34.1523 192.031 34.5664C192.906 34.9805 193.59 35.5508 194.082 36.2773C194.621 37.0039 194.879 37.7891 194.855 38.6328V45.3125C194.879 46.1562 194.617 46.9414 194.07 47.668C193.555 48.3945 192.871 48.9648 192.02 49.3789C191.199 49.793 190.305 50 189.336 50H172.297V33.9453ZM176.68 37.5195V46.4258H188.41C188.996 46.4023 189.484 46.2188 189.875 45.875C190.273 45.5 190.473 45.0586 190.473 44.5508V39.3945C190.473 38.8555 190.273 38.4102 189.875 38.0586C189.484 37.6758 188.996 37.4961 188.41 37.5195H176.68ZM197 33.9453H216.828V37.5195H201.383V40.1445H214.766V43.6602H201.383V46.4258H216.828V50H197V33.9453ZM227.973 50L218.234 33.9453H223.309L230.527 46.0156L237.723 33.9453H242.797L233.059 50H227.973Z" fill="#D7D7D7"/>
<line x1="206" y1="16.5" x2="244" y2="16.5" stroke="#D7D7D7" stroke-width="3"/>
<line x1="1.31134e-07" y1="42.5" x2="74" y2="42.5" stroke="#D7D7D7" stroke-width="3"/>
</svg>
