<svg width="1284" height="122" viewBox="0 0 1284 122" fill="none" xmlns="http://www.w3.org/2000/svg">
<path d="M8.49366e-07 120V-1.78814e-06H45.15C57.65 -1.78814e-06 67.35 2.85 74.25 8.55C81.15 14.25 84.6 22.3 84.6 32.7C84.6 37.8 83.2 42.3 80.4 46.2C77.7 50.1 73.85 53.1 68.85 55.2V57.6C74.65 59.6 79.1 63.05 82.2 67.95C85.4 72.75 87 78.55 87 85.35C87 96.25 83.4 104.75 76.2 110.85C69 116.95 58.85 120 45.75 120H8.49366e-07ZM28.2 93.75H45.45C49.85 93.75 53.25 92.8 55.65 90.9C58.05 89 59.25 86.3 59.25 82.8C59.25 79.2 58.05 76.4 55.65 74.4C53.25 72.4 49.85 71.4 45.45 71.4H28.2V93.75ZM28.2 47.4H44.85C49.25 47.4 52.65 46.5 55.05 44.7C57.45 42.8 58.65 40.25 58.65 37.05C58.65 33.65 57.45 31 55.05 29.1C52.65 27.2 49.25 26.25 44.85 26.25H28.2V47.4ZM141.029 121.8C134.429 121.8 129.329 120.05 125.729 116.55C122.229 112.95 120.479 107.85 120.479 101.25C120.479 94.55 122.229 89.45 125.729 85.95C129.329 82.35 134.429 80.55 141.029 80.55C147.729 80.55 152.829 82.35 156.329 85.95C159.829 89.45 161.579 94.5 161.579 101.1C161.579 107.8 159.829 112.95 156.329 116.55C152.829 120.05 147.729 121.8 141.029 121.8ZM293.938 -1.78814e-06L314.338 99.45H317.338L338.188 -1.78814e-06H364.438L338.638 120H291.538L265.738 -1.78814e-06H293.938ZM409.167 120V-1.78814e-06H490.167V24H437.367V48.75H482.667V72.15H437.367V96H488.667V120H409.167ZM536.696 120V-1.78814e-06H585.146C593.346 -1.78814e-06 600.496 1.6 606.596 4.8C612.796 7.89999 617.596 12.35 620.996 18.15C624.396 23.85 626.096 30.6 626.096 38.4C626.096 45.4 624.346 51.55 620.846 56.85C617.446 62.15 612.646 66.3 606.446 69.3C600.246 72.3 593.146 73.8 585.146 73.8H564.896V120H536.696ZM597.446 120L568.346 69.3H598.346L629.096 120H597.446ZM564.896 50.4H584.096C588.396 50.4 591.746 49.35 594.146 47.25C596.646 45.05 597.896 42.15 597.896 38.55C597.896 34.85 596.646 31.95 594.146 29.85C591.746 27.65 588.396 26.55 584.096 26.55H564.896V50.4ZM670.676 120V-1.78814e-06H715.826C728.326 -1.78814e-06 738.026 2.85 744.926 8.55C751.826 14.25 755.276 22.3 755.276 32.7C755.276 37.8 753.876 42.3 751.076 46.2C748.376 50.1 744.526 53.1 739.526 55.2V57.6C745.326 59.6 749.776 63.05 752.876 67.95C756.076 72.75 757.676 78.55 757.676 85.35C757.676 96.25 754.076 104.75 746.876 110.85C739.676 116.95 729.526 120 716.426 120H670.676ZM698.876 93.75H716.126C720.526 93.75 723.926 92.8 726.326 90.9C728.726 89 729.926 86.3 729.926 82.8C729.926 79.2 728.726 76.4 726.326 74.4C723.926 72.4 720.526 71.4 716.126 71.4H698.876V93.75ZM698.876 47.4H715.526C719.926 47.4 723.326 46.5 725.726 44.7C728.126 42.8 729.326 40.25 729.326 37.05C729.326 33.65 728.126 31 725.726 29.1C723.326 27.2 719.926 26.25 715.526 26.25H698.876V47.4ZM793.855 120L819.655 -1.78814e-06H866.755L892.555 120H864.355L843.955 20.55H840.955L820.105 120H793.855ZM814.105 86.85V60.15H872.155V86.85H814.105ZM937.284 -1.78814e-06H965.184V120H937.284V-1.78814e-06ZM990.834 120L960.384 62.1L994.584 -1.78814e-06H1024.28L990.984 60.75L1022.18 120H990.834ZM1069.31 120V-1.78814e-06H1150.31V24H1097.51V48.75H1142.81V72.15H1097.51V96H1148.81V120H1069.31ZM1206.29 120V-1.78814e-06H1234.49V93.15H1283.84V120H1206.29Z" fill="#161616"/>
</svg>
