<svg width="851" height="303" viewBox="0 0 851 303" fill="none" xmlns="http://www.w3.org/2000/svg">
<path d="M9 123V3H54.15C66.65 3 76.35 5.85 83.25 11.55C90.15 17.25 93.6 25.3 93.6 35.7C93.6 40.8 92.2 45.3 89.4 49.2C86.7 53.1 82.85 56.1 77.85 58.2V60.6C83.65 62.6 88.1 66.05 91.2 70.95C94.4 75.75 96 81.55 96 88.35C96 99.25 92.4 107.75 85.2 113.85C78 119.95 67.85 123 54.75 123H9ZM37.2 96.75H54.45C58.85 96.75 62.25 95.8 64.65 93.9C67.05 92 68.25 89.3 68.25 85.8C68.25 82.2 67.05 79.4 64.65 77.4C62.25 75.4 58.85 74.4 54.45 74.4H37.2V96.75ZM37.2 50.4H53.85C58.25 50.4 61.65 49.5 64.05 47.7C66.45 45.8 67.65 43.25 67.65 40.05C67.65 36.65 66.45 34 64.05 32.1C61.65 30.2 58.25 29.25 53.85 29.25H37.2V50.4ZM154.679 126C145.679 126 137.929 124.3 131.429 120.9C125.029 117.5 120.079 112.65 116.579 106.35C113.179 100.05 111.479 92.5 111.479 83.7V70.5H139.079V83.25C139.079 88.75 140.379 93 142.979 96C145.679 98.9 149.529 100.35 154.529 100.35C159.729 100.35 163.629 98.9 166.229 96C168.929 93 170.279 88.75 170.279 83.25V30H119.879V3H198.479V83.7C198.479 92.5 196.729 100.05 193.229 106.35C189.729 112.65 184.679 117.5 178.079 120.9C171.579 124.3 163.779 126 154.679 126ZM265.559 126C249.759 126 237.709 120.65 229.409 109.95C221.209 99.25 217.109 83.6 217.109 63C217.109 42.4 221.209 26.75 229.409 16.05C237.709 5.34999 249.759 -7.86781e-06 265.559 -7.86781e-06C281.359 -7.86781e-06 293.359 5.34999 301.559 16.05C309.859 26.75 314.009 42.4 314.009 63C314.009 83.6 309.859 99.25 301.559 109.95C293.359 120.65 281.359 126 265.559 126ZM265.559 100.35C272.359 100.35 277.409 97.3 280.709 91.2C284.109 85 285.809 75.6 285.809 63C285.809 50.4 284.109 41.05 280.709 34.95C277.409 28.75 272.359 25.65 265.559 25.65C258.759 25.65 253.659 28.75 250.259 34.95C246.959 41.05 245.309 50.4 245.309 63C245.309 75.6 246.959 85 250.259 91.2C253.659 97.3 258.759 100.35 265.559 100.35ZM331.138 123V3H379.588C387.788 3 394.938 4.6 401.038 7.8C407.238 10.9 412.038 15.35 415.438 21.15C418.838 26.85 420.538 33.6 420.538 41.4C420.538 48.4 418.788 54.55 415.288 59.85C411.888 65.15 407.088 69.3 400.888 72.3C394.688 75.3 387.588 76.8 379.588 76.8H359.338V123H331.138ZM391.888 123L362.788 72.3H392.788L423.538 123H391.888ZM359.338 53.4H378.538C382.838 53.4 386.188 52.35 388.588 50.25C391.088 48.05 392.338 45.15 392.338 41.55C392.338 37.85 391.088 34.95 388.588 32.85C386.188 30.65 382.838 29.55 378.538 29.55H359.338V53.4ZM437.367 123V3H480.867L500.517 100.95H503.517L501.717 51.45V3H525.867V123H482.367L462.717 25.05H459.717L461.517 74.55V123H437.367ZM28.35 183L48.75 282.45H51.75L72.6 183H98.85L73.05 303H25.95L0.15 183H28.35ZM119.579 303V183H200.579V207H147.779V231.75H193.079V255.15H147.779V279H199.079V303H119.579ZM223.109 303V183H271.559C279.759 183 286.909 184.6 293.009 187.8C299.209 190.9 304.009 195.35 307.409 201.15C310.809 206.85 312.509 213.6 312.509 221.4C312.509 228.4 310.759 234.55 307.259 239.85C303.859 245.15 299.059 249.3 292.859 252.3C286.659 255.3 279.559 256.8 271.559 256.8H251.309V303H223.109ZM283.859 303L254.759 252.3H284.759L315.509 303H283.859ZM251.309 233.4H270.509C274.809 233.4 278.159 232.35 280.559 230.25C283.059 228.05 284.309 225.15 284.309 221.55C284.309 217.85 283.059 214.95 280.559 212.85C278.159 210.65 274.809 209.55 270.509 209.55H251.309V233.4ZM333.088 303V183H378.238C390.738 183 400.438 185.85 407.338 191.55C414.238 197.25 417.688 205.3 417.688 215.7C417.688 220.8 416.288 225.3 413.488 229.2C410.788 233.1 406.938 236.1 401.938 238.2V240.6C407.738 242.6 412.188 246.05 415.288 250.95C418.488 255.75 420.088 261.55 420.088 268.35C420.088 279.25 416.488 287.75 409.288 293.85C402.088 299.95 391.938 303 378.838 303H333.088ZM361.288 276.75H378.538C382.938 276.75 386.338 275.8 388.738 273.9C391.138 272 392.338 269.3 392.338 265.8C392.338 262.2 391.138 259.4 388.738 257.4C386.338 255.4 382.938 254.4 378.538 254.4H361.288V276.75ZM361.288 230.4H377.938C382.338 230.4 385.738 229.5 388.138 227.7C390.538 225.8 391.738 223.25 391.738 220.05C391.738 216.65 390.538 214 388.138 212.1C385.738 210.2 382.338 209.25 377.938 209.25H361.288V230.4ZM432.267 303L458.067 183H505.167L530.967 303H502.767L482.367 203.55H479.367L458.517 303H432.267ZM452.517 269.85V243.15H510.567V269.85H452.517ZM551.696 183H579.596V303H551.696V183ZM605.246 303L574.796 245.1L608.996 183H638.696L605.396 243.75L636.596 303H605.246ZM659.726 303V183H740.726V207H687.926V231.75H733.226V255.15H687.926V279H739.226V303H659.726ZM772.705 303V183H800.905V276.15H850.255V303H772.705Z" fill="#161616"/>
</svg>
