<svg width="1058" height="122" viewBox="0 0 1058 122" fill="none" xmlns="http://www.w3.org/2000/svg">
<path d="M8.49366e-07 120V-1.78814e-06H45.15C57.65 -1.78814e-06 67.35 2.85 74.25 8.55C81.15 14.25 84.6 22.3 84.6 32.7C84.6 37.8 83.2 42.3 80.4 46.2C77.7 50.1 73.85 53.1 68.85 55.2V57.6C74.65 59.6 79.1 63.05 82.2 67.95C85.4 72.75 87 78.55 87 85.35C87 96.25 83.4 104.75 76.2 110.85C69 116.95 58.85 120 45.75 120H8.49366e-07ZM28.2 93.75H45.45C49.85 93.75 53.25 92.8 55.65 90.9C58.05 89 59.25 86.3 59.25 82.8C59.25 79.2 58.05 76.4 55.65 74.4C53.25 72.4 49.85 71.4 45.45 71.4H28.2V93.75ZM28.2 47.4H44.85C49.25 47.4 52.65 46.5 55.05 44.7C57.45 42.8 58.65 40.25 58.65 37.05C58.65 33.65 57.45 31 55.05 29.1C52.65 27.2 49.25 26.25 44.85 26.25H28.2V47.4ZM148.529 121.8C141.929 121.8 136.829 120.05 133.229 116.55C129.729 112.95 127.979 107.85 127.979 101.25C127.979 94.55 129.729 89.45 133.229 85.95C136.829 82.35 141.929 80.55 148.529 80.55C155.229 80.55 160.329 82.35 163.829 85.95C167.329 89.45 169.079 94.5 169.079 101.1C169.079 107.8 167.329 112.95 163.829 116.55C160.329 120.05 155.229 121.8 148.529 121.8ZM235.409 -1.78814e-06L255.809 99.45H258.809L279.659 -1.78814e-06H305.909L280.109 120H233.009L207.209 -1.78814e-06H235.409ZM326.638 120V-1.78814e-06H407.638V24H354.838V48.75H400.138V72.15H354.838V96H406.138V120H326.638ZM430.167 120V-1.78814e-06H478.617C486.817 -1.78814e-06 493.967 1.6 500.067 4.8C506.267 7.89999 511.067 12.35 514.467 18.15C517.867 23.85 519.567 30.6 519.567 38.4C519.567 45.4 517.817 51.55 514.317 56.85C510.917 62.15 506.117 66.3 499.917 69.3C493.717 72.3 486.617 73.8 478.617 73.8H458.367V120H430.167ZM490.917 120L461.817 69.3H491.817L522.567 120H490.917ZM458.367 50.4H477.567C481.867 50.4 485.217 49.35 487.617 47.25C490.117 45.05 491.367 42.15 491.367 38.55C491.367 34.85 490.117 31.95 487.617 29.85C485.217 27.65 481.867 26.55 477.567 26.55H458.367V50.4ZM540.146 120V-1.78814e-06H585.296C597.796 -1.78814e-06 607.496 2.85 614.396 8.55C621.296 14.25 624.746 22.3 624.746 32.7C624.746 37.8 623.346 42.3 620.546 46.2C617.846 50.1 613.996 53.1 608.996 55.2V57.6C614.796 59.6 619.246 63.05 622.346 67.95C625.546 72.75 627.146 78.55 627.146 85.35C627.146 96.25 623.546 104.75 616.346 110.85C609.146 116.95 598.996 120 585.896 120H540.146ZM568.346 93.75H585.596C589.996 93.75 593.396 92.8 595.796 90.9C598.196 89 599.396 86.3 599.396 82.8C599.396 79.2 598.196 76.4 595.796 74.4C593.396 72.4 589.996 71.4 585.596 71.4H568.346V93.75ZM568.346 47.4H584.996C589.396 47.4 592.796 46.5 595.196 44.7C597.596 42.8 598.796 40.25 598.796 37.05C598.796 33.65 597.596 31 595.196 29.1C592.796 27.2 589.396 26.25 584.996 26.25H568.346V47.4ZM639.326 120L665.126 -1.78814e-06H712.226L738.026 120H709.826L689.426 20.55H686.426L665.576 120H639.326ZM659.576 86.85V60.15H717.626V86.85H659.576ZM758.755 -1.78814e-06H786.655V120H758.755V-1.78814e-06ZM812.305 120L781.855 62.1L816.055 -1.78814e-06H845.755L812.455 60.75L843.655 120H812.305ZM866.784 120V-1.78814e-06H947.784V24H894.984V48.75H940.284V72.15H894.984V96H946.284V120H866.784ZM979.764 120V-1.78814e-06H1007.96V93.15H1057.31V120H979.764Z" fill="#161616"/>
</svg>
