<svg width="482" height="93" viewBox="0 0 482 93" fill="none" xmlns="http://www.w3.org/2000/svg">
<line x1="16" y1="15.5" x2="482" y2="15.5" stroke="#D7D7D7"/>
<mask id="mask0_31_4" style="mask-type:luminance" maskUnits="userSpaceOnUse" x="0" y="0" width="31" height="31">
<path d="M31 0H0V31H31V0Z" fill="white"/>
</mask>
<g mask="url(#mask0_31_4)">
<path d="M15.4398 31C15.4398 31 13.7549 20.7068 12.1215 19.02C10.3849 17.2471 0 15.5602 0 15.5602C0 15.5602 10.3849 13.8562 12.1043 12.1177C13.8408 10.3792 15.5258 0 15.5258 0C15.5258 0 17.2108 10.3792 18.9473 12.1177C20.6667 13.839 31 15.5602 31 15.5602C31 15.5602 20.6839 17.2815 18.9473 19.0028C17.1764 20.7585 15.4226 30.9828 15.4226 30.9828" fill="#D6D6D6"/>
</g>
<line x1="152" y1="46.5" x2="482" y2="46.5" stroke="#D7D7D7"/>
<mask id="mask1_31_4" style="mask-type:luminance" maskUnits="userSpaceOnUse" x="136" y="31" width="31" height="31">
<path d="M167 31H136V62H167V31Z" fill="white"/>
</mask>
<g mask="url(#mask1_31_4)">
<path d="M151.44 62C151.44 62 149.755 51.7068 148.121 50.02C146.385 48.2471 136 46.5602 136 46.5602C136 46.5602 146.385 44.8562 148.104 43.1177C149.841 41.3792 151.526 31 151.526 31C151.526 31 153.211 41.3792 154.947 43.1177C156.667 44.839 167 46.5602 167 46.5602C167 46.5602 156.684 48.2815 154.947 50.0028C153.176 51.7585 151.423 61.9828 151.423 61.9828" fill="#D6D6D6"/>
</g>
<line x1="288" y1="77.5" x2="482" y2="77.5" stroke="#D7D7D7"/>
<mask id="mask2_31_4" style="mask-type:luminance" maskUnits="userSpaceOnUse" x="272" y="62" width="31" height="31">
<path d="M303 62H272V93H303V62Z" fill="white"/>
</mask>
<g mask="url(#mask2_31_4)">
<path d="M287.44 93C287.44 93 285.755 82.7068 284.121 81.02C282.385 79.2471 272 77.5602 272 77.5602C272 77.5602 282.385 75.8562 284.104 74.1177C285.841 72.3792 287.526 62 287.526 62C287.526 62 289.211 72.3792 290.947 74.1177C292.667 75.839 303 77.5602 303 77.5602C303 77.5602 292.684 79.2815 290.947 81.0028C289.176 82.7585 287.423 92.9828 287.423 92.9828" fill="#D6D6D6"/>
</g>
</svg>
