<?xml version="1.0" encoding="UTF-8"?>
<svg id="Layer_2" xmlns="http://www.w3.org/2000/svg" viewBox="0 0 700 700">
  <g id="Layer_1-2" data-name="Layer_1">
    <path d="M0,0v700h700V0H0ZM375,543.75c0,68.14-40.25,101.36-98.52,101.36-52.63,0-83.17-27.25-98.67-60.14h0l53.56-32.42c10.33,18.33,18.17,33.83,40.72,33.83,18.75,0,34.16-8.45,34.16-41.34v-220.03h68.75v218.75ZM530.23,643.55c-61.08,0-100.55-27.56-119.81-65.62h0l53.64-31.05c14.06,23.03,32.42,38.37,64.84,38.37,27.25,0,43.08-12.06,43.08-30.86,0-22.55-16.3-30.53-46.37-43.75l-16.44-7.06c-47.47-20.19-78.94-45.56-78.94-99.14,0-49.33,37.58-85.36,96.31-85.36,41.83,0,71.88,13,93.52,51.06l-51.31,32.98c-11.28-20.2-23.44-28.12-42.28-28.12s-31.48,12.22-31.48,28.12c0,19.73,12.22,27.72,40.41,39.94l16.44,7.05c55.92,23.97,87.41,48.44,87.41,103.38.02,59.22-46.5,90.06-109,90.06Z"/>
  </g>
</svg>