<?xml version="1.0" encoding="UTF-8"?>
<svg id="Layer_2" xmlns="http://www.w3.org/2000/svg" viewBox="0 0 22 22">
  <defs>
    <style>
      .cls-1 {
        fill-rule: evenodd;
      }
    </style>
  </defs>
  <g id="Adobe-Photoshop-Logo--Streamline-Logos-Block">
    <path class="cls-1" d="M4,0C1.79,0,0,1.79,0,4v14c0,2.21,1.79,4,4,4h14c2.21,0,4-1.79,4-4V4c0-2.21-1.79-4-4-4H4ZM4.5,6h3.5c1.93,0,3.5,1.57,3.5,3.5s-1.57,3.5-3.5,3.5h-1.5v3h-2V6ZM6.5,11h1.5c.83,0,1.5-.67,1.5-1.5s-.67-1.5-1.5-1.5h-1.5v3ZM16.92,10.63c-.86-.19-1.76-.35-2.42-.3-.33.02-.76.13-.33.47.35.28.77.46,1.19.64.43.18.86.36,1.23.67.51.42.91,1.03.91,1.89s-.4,1.51-1.05,1.9c-.57.34-1.26.44-1.85.46-.96.02-2.02-.17-2.81-.36v-2.07c.73.21,1.86.45,2.76.43.47-.01.75-.1.87-.17.2-.12.02-.43-.1-.53-.35-.29-.77-.47-1.2-.65-.42-.18-.84-.35-1.2-.64-.51-.41-.92-1.02-.92-1.87,0-.69.29-1.28.82-1.66.47-.34,1.04-.46,1.53-.49.82-.06,1.78.08,2.57.24,0,0,0,2.05,0,2.05Z"/>
  </g>
</svg>